g Egg Crown
v -0.06266158 -0.14244719 0.78490365
v -0.16405012 -0.06978213 0.7728191
v -0.11869691 -0.10442639 0.833824
v -0.057387013 -0.1424048 0.6862047
v -0.15024109 -0.07585633 0.6751374
v -0.20277709 0.047792494 0.7532659
v -0.18570818 0.03182132 0.65723014
v 0.057386965 -0.1424048 0.6862047
v 0.062661596 -0.14244719 0.78490365
v -1.1479303E-08 -0.14248957 0.88360244
v 0.16405013 -0.06978209 0.7728191
v 0.118696935 -0.104426414 0.833824
v 0.15024102 -0.07585633 0.6751374
v 0.20277709 0.047792494 0.7532659
v 0.18570818 0.031821325 0.65723014
v -0.18570818 0.03182132 0.65723014
v -0.1640501 0.16536708 0.73371273
v -0.20277709 0.047792494 0.7532659
v -0.15024109 0.13949893 0.63932294
v -0.06266157 0.23803215 0.72162825
v -0.057387 0.20604737 0.6282556
v 0.057386976 0.20604737 0.6282556
v 0.06266161 0.23803215 0.72162825
v 0.15024109 0.13949895 0.63932294
v 0.16405016 0.16536707 0.73371273
v 0.18570818 0.031821325 0.65723014
v 0.20277709 0.047792494 0.7532659
v -0.060257886 -0.13650157 0.78257304
v -0.11395803 -0.0997288 0.8296427
v -0.15775715 -0.06662389 0.77095205
v -0.055369034 -0.13694309 0.68763167
v -0.14495796 -0.07273474 0.67695355
v -0.19499858 0.046440538 0.7521489
v -0.1791779 0.0311565 0.65967596
v 0.05536906 -0.13694309 0.68763167
v 0.06025791 -0.13650157 0.78257304
v 1.0624336E-09 -0.13606001 0.8775143
v 0.15775715 -0.06662389 0.77095205
v 0.11395806 -0.09972882 0.8296427
v 0.14495799 -0.072734736 0.67695355
v 0.19499858 0.046440557 0.7521489
v 0.1791779 0.03115649 0.65967596
v -0.15775715 0.15950501 0.73334587
v -0.1791779 0.0311565 0.65967596
v -0.19499858 0.046440538 0.7521489
v -0.14495794 0.13504778 0.6423984
v -0.060257882 0.22938266 0.7217249
v -0.055369012 0.19925605 0.63172036
v 0.055369012 0.19925605 0.63172036
v 0.06025792 0.22938262 0.7217249
v 0.144958 0.13504773 0.6423984
v 0.1577572 0.15950494 0.73334587
v 0.1791779 0.03115649 0.65967596
v 0.19499858 0.046440557 0.7521489
v -1.0842021E-21 0 -0.0016564941
v 0.13013719 -0.075134665 0.029950792
v 0.15026946 0 0.029950825
v 0.23921989 0 0.087430485
v 0.20717055 -0.11960991 0.087430455
v 0.075134724 -0.1301371 0.029950825
v 0.25051066 -0.14463234 0.17601083
v 0.28926474 0 0.17601085
v 0.26680526 -0.15404004 0.30697814
v 0.3080801 0 0.30697808
v 0.29120424 0 0.43015963
v 0.14463244 -0.25051054 0.17601082
v 0.11960997 -0.20717041 0.087430485
v -4.5258304E-11 -0.2892647 0.17601083
v 3.3675163E-10 -0.15026946 0.029950792
v -1.7441133E-10 -0.23921987 0.087430455
v -0.075134724 -0.1301371 0.029950825
v -0.13013719 -0.075134665 0.029950792
v -0.15026946 0 0.029950825
v -0.119609974 -0.20717041 0.087430485
v -0.20717055 -0.11960991 0.087430455
v -0.23921989 0 0.087430485
v -0.14463244 -0.25051054 0.17601082
v -0.25051066 -0.14463234 0.17601083
v -0.28926474 0 0.17601085
v -0.26680526 -0.15404004 0.30697814
v -0.3080801 0 0.30697808
v -0.29120424 0 0.43015963
v -0.15404017 -0.26680514 0.3069781
v -0.25219032 -0.14560209 0.4301597
v -0.24107079 0 0.5568212
v -0 -0.30808008 0.30697808
v -0.14560226 -0.25219023 0.43015963
v -0.20877348 -0.120535396 0.5568212
v 0.15404017 -0.26680514 0.3069781
v -1.0842021E-21 -0.29120424 0.43015963
v 0.14560226 -0.25219023 0.43015963
v -0.15995911 -0.09235243 0.6312612
v -0.18470488 0 0.6312612
v -0.12053553 -0.20877342 0.5568212
v 0.25219032 -0.14560209 0.4301597
v 0.24107079 0 0.5568212
v 0.20877348 -0.120535396 0.5568212
v 0.18470488 0 0.6312612
v 0.12053553 -0.20877342 0.5568212
v 0.15995911 -0.09235243 0.6312612
v -8.88302E-11 -0.24107078 0.5568213
v -0.09235253 -0.15995908 0.6312612
v 0.09235254 -0.15995908 0.6312612
v -1.4210854E-16 -0.18470487 0.6312611
v 0.09370495 -0.05410056 0.694927
v 0.108201206 0 0.6949269
v -1.3352966E-10 0 0.71944124
v 0.054100648 -0.093704924 0.6949269
v -1.3352966E-10 -0.10820116 0.6949268
v -0.054100648 -0.093704924 0.6949269
v -0.09370495 -0.05410056 0.694927
v -0.108201206 0 0.6949269
v -1.3352966E-10 0 0.71944124
v -0.108201206 0 0.6949269
v -0.09370495 0.05410056 0.694927
v -0.18470488 0 0.6312612
v -0.15995911 0.09235243 0.6312612
v -0.24107079 0 0.5568212
v -0.054100648 0.093704924 0.6949269
v -0.20877348 0.120535396 0.5568212
v -0.09235253 0.15995908 0.6312612
v -1.3352966E-10 0.10820116 0.6949268
v -0.25219032 0.14560209 0.4301597
v -0.29120424 0 0.43015963
v -0.26680526 0.15404004 0.30697814
v -0.3080801 0 0.30697808
v -0.28926474 0 0.17601085
v -0.25051066 0.14463234 0.17601083
v -0.23921989 0 0.087430485
v -0.20717055 0.11960991 0.087430455
v -0.15026946 0 0.029950825
v -0.14463244 0.25051054 0.17601082
v -0.15404017 0.26680514 0.3069781
v -4.5258304E-11 0.2892647 0.17601083
v -0.14560226 0.25219023 0.43015963
v -0.13013719 0.075134665 0.029950792
v -1.0842021E-21 0 -0.0016564941
v -0.119609974 0.20717041 0.087430485
v -0.075134724 0.1301371 0.029950825
v -1.7441133E-10 0.23921987 0.087430455
v 3.3675163E-10 0.15026946 0.029950792
v 0.11960997 0.20717041 0.087430485
v 0.075134724 0.1301371 0.029950825
v 0.13013719 0.075134665 0.029950792
v 0.15026946 0 0.029950825
v 0.23921989 0 0.087430485
v 0.20717055 0.11960991 0.087430455
v 0.14463244 0.25051054 0.17601082
v 0.25051066 0.14463234 0.17601083
v 0.26680526 0.15404004 0.30697814
v 0.28926474 0 0.17601085
v 0.3080801 0 0.30697808
v 0.29120424 0 0.43015963
v 0.15404017 0.26680514 0.3069781
v 0.25219032 0.14560209 0.4301597
v 0.24107079 0 0.5568212
v 0.14560226 0.25219023 0.43015963
v 0.20877348 0.120535396 0.5568212
v 0.18470488 0 0.6312612
v -0 0.30808008 0.30697808
v -1.0842021E-21 0.29120424 0.43015963
v 0.12053553 0.20877342 0.5568212
v 0.15995911 0.09235243 0.6312612
v -0.12053553 0.20877342 0.5568212
v -8.88302E-11 0.24107078 0.5568213
v -1.4210854E-16 0.18470487 0.6312611
v 0.09235254 0.15995908 0.6312612
v 0.054100648 0.093704924 0.6949269
v 0.09370495 0.05410056 0.694927
v 0.108201206 0 0.6949269
vt 0.93066406 0.6713867
vt 0.921875 0.6713867
vt 0.92626953 0.8208008
vt 0.93066406 0.40454102
vt 0.921875 0.40454102
vt 0.91845703 0.6713867
vt 0.91845703 0.40454102
vt 0.94189453 0.40454102
vt 0.94189453 0.6713867
vt 0.93603516 0.9379883
vt 0.9506836 0.6713867
vt 0.94628906 0.8208008
vt 0.9506836 0.40454102
vt 0.9536133 0.6713867
vt 0.9536133 0.40454102
vt 0.91845703 0.40454102
vt 0.921875 0.6713867
vt 0.91845703 0.6713867
vt 0.921875 0.40454102
vt 0.93066406 0.6713867
vt 0.93066406 0.40454102
vt 0.94189453 0.40454102
vt 0.94189453 0.6713867
vt 0.9506836 0.40454102
vt 0.9506836 0.6713867
vt 0.9536133 0.40454102
vt 0.9536133 0.6713867
vt 0.93115234 0.35009766
vt 0.9267578 0.49389648
vt 0.9223633 0.35009766
vt 0.93115234 0.09338379
vt 0.9223633 0.09338379
vt 0.9194336 0.35009766
vt 0.9194336 0.09338379
vt 0.94140625 0.09338379
vt 0.94140625 0.35009766
vt 0.93603516 0.6069336
vt 0.94970703 0.35009766
vt 0.9458008 0.49389648
vt 0.94970703 0.09338379
vt 0.953125 0.35009766
vt 0.953125 0.09338379
vt 0.9223633 0.35009766
vt 0.9194336 0.09338379
vt 0.9194336 0.35009766
vt 0.9223633 0.09338379
vt 0.93115234 0.35009766
vt 0.93115234 0.09338379
vt 0.94140625 0.09338379
vt 0.94140625 0.35009766
vt 0.94970703 0.09338379
vt 0.94970703 0.35009766
vt 0.953125 0.09338379
vt 0.953125 0.35009766
vt 0.39331055 0.025817871
vt 0.54248047 0.103759766
vt 0.57666016 0.087890625
vt 0.68359375 0.16333008
vt 0.6064453 0.1772461
vt 0.47875977 0.1161499
vt 0.62890625 0.26220703
vt 0.7363281 0.26220703
vt 0.64697266 0.3864746
vt 0.7739258 0.3864746
vt 0.7573242 0.5053711
vt 0.51416016 0.26220703
vt 0.50683594 0.18518066
vt 0.39331055 0.26220703
vt 0.39453125 0.121520996
vt 0.3935547 0.18823242
vt 0.32421875 0.1194458
vt 0.2524414 0.109375
vt 0.19543457 0.087890625
vt 0.2919922 0.18615723
vt 0.1899414 0.17822266
vt 0.0947876 0.16333008
vt 0.2788086 0.26220703
vt 0.16320801 0.26220703
vt 0.04562378 0.26220703
vt 0.14477539 0.3864746
vt 0.018203735 0.3864746
vt 0.040130615 0.5053711
vt 0.2697754 0.3864746
vt 0.15576172 0.5053711
vt 0.107788086 0.64208984
vt 0.39331055 0.3864746
vt 0.2746582 0.5053711
vt 0.1940918 0.625
vt 0.5214844 0.3864746
vt 0.39331055 0.5053711
vt 0.51660156 0.5053711
vt 0.23901367 0.70166016
vt 0.18469238 0.72314453
vt 0.2919922 0.61621094
vt 0.6357422 0.5053711
vt 0.69384766 0.64208984
vt 0.5966797 0.6254883
vt 0.6166992 0.72314453
vt 0.4975586 0.6166992
vt 0.5498047 0.7001953
vt 0.39331055 0.61376953
vt 0.31225586 0.6879883
vt 0.47436523 0.6875
vt 0.39331055 0.68359375
vt 0.5058594 0.7680664
vt 0.5488281 0.7792969
vt 0.39331055 0.8276367
vt 0.45141602 0.7626953
vt 0.39086914 0.76123047
vt 0.3322754 0.7636719
vt 0.2836914 0.7705078
vt 0.25634766 0.7792969
vt 0.39331055 0.8276367
vt 0.25634766 0.7792969
vt 0.2836914 0.7705078
vt 0.18469238 0.72314453
vt 0.23901367 0.70166016
vt 0.107788086 0.64208984
vt 0.3322754 0.7636719
vt 0.1940918 0.625
vt 0.31225586 0.6879883
vt 0.39086914 0.76123047
vt 0.15576172 0.5053711
vt 0.040130615 0.5053711
vt 0.14477539 0.3864746
vt 0.018203735 0.3864746
vt 0.04562378 0.26220703
vt 0.16320801 0.26220703
vt 0.0947876 0.16333008
vt 0.1899414 0.17822266
vt 0.19543457 0.087890625
vt 0.2788086 0.26220703
vt 0.2697754 0.3864746
vt 0.39331055 0.26220703
vt 0.2746582 0.5053711
vt 0.2524414 0.109375
vt 0.39331055 0.025817871
vt 0.2919922 0.18615723
vt 0.32421875 0.1194458
vt 0.3935547 0.18823242
vt 0.39453125 0.121520996
vt 0.50683594 0.18518066
vt 0.47875977 0.1161499
vt 0.54248047 0.103759766
vt 0.57666016 0.087890625
vt 0.68359375 0.16333008
vt 0.6064453 0.1772461
vt 0.51416016 0.26220703
vt 0.62890625 0.26220703
vt 0.64697266 0.3864746
vt 0.7363281 0.26220703
vt 0.7739258 0.3864746
vt 0.7573242 0.5053711
vt 0.5214844 0.3864746
vt 0.6357422 0.5053711
vt 0.69384766 0.64208984
vt 0.51660156 0.5053711
vt 0.5966797 0.6254883
vt 0.6166992 0.72314453
vt 0.39331055 0.3864746
vt 0.39331055 0.5053711
vt 0.4975586 0.6166992
vt 0.5498047 0.7001953
vt 0.2919922 0.61621094
vt 0.39331055 0.61376953
vt 0.39331055 0.68359375
vt 0.47436523 0.6875
vt 0.45141602 0.7626953
vt 0.5058594 0.7680664
vt 0.5488281 0.7792969
vn -0.28626627 -0.9580213 -0.015709635
vn -0.75924855 -0.64733446 -0.06707916
vn -0.57978034 -0.8141702 -0.03133234
vn -0.30437422 -0.9524065 -0.016675282
vn -0.7968622 -0.59944075 -0.07537513
vn -0.98497576 -0.028330376 -0.1703532
vn -0.98497576 -0.028330408 -0.1703532
vn 0.30437416 -0.9524065 -0.016675435
vn 0.28626642 -0.9580213 -0.015709855
vn -0 -0.9999999 -0.00042940018
vn 0.75924873 -0.6473344 -0.06707971
vn 0.57978046 -0.81417006 -0.031332918
vn 0.7968621 -0.599441 -0.07537542
vn 0.98497564 -0.028330693 -0.17035331
vn 0.98497564 -0.028330795 -0.17035323
vn -0.98497576 -0.028330408 -0.1703532
vn -0.7968619 0.5427801 -0.26533154
vn -0.98497576 -0.028330376 -0.1703532
vn -0.7968622 0.54277986 -0.26533142
vn -0.3043742 0.8957456 -0.32403135
vn -0.3043743 0.89574546 -0.32403123
vn 0.30437404 0.8957456 -0.3240315
vn 0.3043742 0.89574546 -0.32403138
vn 0.796862 0.5427798 -0.26533175
vn 0.796862 0.54277986 -0.26533166
vn 0.98497564 -0.028330795 -0.17035323
vn 0.98497564 -0.028330693 -0.17035331
vn 0.2865323 0.9580153 0.01029918
vn 0.5802816 0.81399775 0.026094522
vn 0.7599632 0.6470581 0.06141401
vn 0.30471814 0.952376 0.011262049
vn 0.7977509 0.59894675 0.06968723
vn 0.98605144 0.027484087 0.16415548
vn 0.98605156 0.027107267 0.16421781
vn -0.3047182 0.952376 0.011262028
vn -0.28653234 0.9580152 0.010299243
vn -0 0.9999893 -0.0046507334
vn -0.75996333 0.6470581 0.06141398
vn -0.5802816 0.81399775 0.026094979
vn -0.797751 0.5989466 0.0696871
vn -0.98605156 0.027483962 0.16415547
vn -0.98605156 0.027107298 0.16421774
vn 0.7978953 -0.54445904 0.25870314
vn 0.98605156 0.027107267 0.16421781
vn 0.98605144 0.027484087 0.16415548
vn 0.79771376 -0.5447056 0.25874403
vn 0.30480716 -0.8980559 0.31715637
vn 0.30469495 -0.89809185 0.31716245
vn -0.30469504 -0.89809185 0.31716233
vn -0.30480754 -0.8980559 0.31715617
vn -0.7977138 -0.5447055 0.25874385
vn -0.7978955 -0.5444589 0.258703
vn -0.98605156 0.027107298 0.16421774
vn -0.98605156 0.027483962 0.16415547
vn -0 0 -1
vn 0.35158598 -0.2029883 -0.9138835
vn 0.40597665 0 -0.9138835
vn 0.7454141 0 -0.6666018
vn 0.64554745 -0.37270692 -0.6666019
vn 0.20298845 -0.351586 -0.9138834
vn 0.8223221 -0.47476777 -0.313659
vn 0.9495357 0 -0.31365895
vn 0.86602116 -0.49999732 -0.003195576
vn 0.9999949 0 -0.003195568
vn 0.9685071 0 0.24898599
vn 0.47476768 -0.822322 -0.3136592
vn 0.37270683 -0.64554733 -0.666602
vn -0 -0.9495356 -0.31365895
vn -0 -0.4059767 -0.9138834
vn -0 -0.74541414 -0.6666017
vn -0.2029884 -0.35158616 -0.9138834
vn -0.35158598 -0.20298828 -0.9138835
vn -0.40597668 0 -0.9138835
vn -0.37270686 -0.64554733 -0.66660196
vn -0.64554745 -0.3727069 -0.6666019
vn -0.74541396 0 -0.6666018
vn -0.4747677 -0.822322 -0.31365916
vn -0.8223221 -0.47476777 -0.313659
vn -0.9495357 0 -0.31365895
vn -0.86602116 -0.49999732 -0.0031955128
vn -0.9999949 0 -0.003195568
vn -0.9685071 0 0.24898599
vn -0.4999976 -0.866021 -0.0031957102
vn -0.8387519 -0.4842533 0.24898605
vn -0.8766974 0 0.4810423
vn -0 -0.9999949 -0.00319571
vn -0.4842538 -0.8387517 0.24898586
vn -0.7592423 -0.43834847 0.48104224
vn 0.49999753 -0.866021 -0.003195761
vn -0 -0.9685071 0.24898581
vn 0.48425364 -0.83875173 0.24898583
vn -0.6338849 -0.36597356 0.6813613
vn -0.7319473 0 0.68136126
vn -0.4383488 -0.7592421 0.48104224
vn 0.8387519 -0.4842532 0.24898612
vn 0.8766974 0 0.4810423
vn 0.7592423 -0.43834856 0.48104224
vn 0.73194724 0 0.6813613
vn 0.43834892 -0.7592421 0.48104218
vn 0.6338849 -0.36597356 0.6813613
vn -0 -0.8766973 0.48104241
vn -0.3659734 -0.6338849 0.6813615
vn 0.36597356 -0.6338848 0.6813615
vn -1.2332207E-07 -0.731947 0.6813616
vn 0.40936857 -0.23634918 0.88122445
vn 0.4726987 0 0.88122416
vn -0 0 1
vn 0.23634855 -0.40936935 0.8812243
vn -0 -0.47269884 0.88122404
vn -0.23634854 -0.40936926 0.8812243
vn -0.40936857 -0.23634918 0.88122445
vn -0.4726987 0 0.88122416
vn -0 0 1
vn -0.4726987 0 0.88122416
vn -0.4093685 0.23634917 0.88122445
vn -0.7319473 0 0.68136126
vn -0.63388485 0.3659736 0.6813614
vn -0.8766974 0 0.4810423
vn -0.23634854 0.40936926 0.8812243
vn -0.7592423 0.43834847 0.4810423
vn -0.3659734 0.6338849 0.6813615
vn -0 0.47269884 0.88122404
vn -0.83875185 0.4842533 0.24898604
vn -0.9685071 0 0.24898599
vn -0.86602116 0.49999732 -0.0031955163
vn -0.9999949 0 -0.003195568
vn -0.9495357 0 -0.31365895
vn -0.8223221 0.47476777 -0.313659
vn -0.74541396 0 -0.6666018
vn -0.64554745 0.3727069 -0.66660184
vn -0.40597668 0 -0.9138835
vn -0.47476777 0.822322 -0.3136592
vn -0.4999976 0.866021 -0.003195705
vn -0 0.9495356 -0.31365895
vn -0.4842538 0.8387517 0.24898586
vn -0.35158598 0.20298828 -0.9138835
vn -0 0 -1
vn -0.37270686 0.64554733 -0.66660196
vn -0.2029884 0.3515862 -0.9138834
vn -0 0.7454141 -0.6666018
vn -0 0.4059767 -0.9138834
vn 0.37270686 0.64554733 -0.666602
vn 0.20298845 0.35158607 -0.9138834
vn 0.35158595 0.2029883 -0.9138835
vn 0.40597665 0 -0.9138835
vn 0.7454141 0 -0.6666018
vn 0.64554745 0.37270692 -0.6666019
vn 0.47476777 0.822322 -0.3136592
vn 0.8223221 0.47476777 -0.313659
vn 0.86602116 0.49999732 -0.0031955708
vn 0.9495357 0 -0.31365895
vn 0.9999949 0 -0.003195568
vn 0.9685071 0 0.24898599
vn 0.49999753 0.866021 -0.003195761
vn 0.8387519 0.4842532 0.24898612
vn 0.8766974 0 0.4810423
vn 0.48425364 0.83875173 0.24898583
vn 0.7592423 0.43834856 0.48104224
vn 0.73194724 0 0.6813613
vn -0 0.9999949 -0.0031957126
vn -0 0.9685071 0.24898581
vn 0.43834892 0.7592421 0.48104218
vn 0.6338849 0.36597356 0.68136126
vn -0.43834886 0.7592421 0.48104227
vn -0 0.8766973 0.48104241
vn -1.2332207E-07 0.731947 0.6813616
vn 0.36597356 0.6338848 0.6813615
vn 0.23634854 0.40936923 0.8812243
vn 0.40936854 0.23634917 0.88122445
vn 0.4726987 0 0.88122416
g Egg Crown_0
f 3/3/3 2/2/2 1/1/1
f 1/1/1 2/2/2 4/4/4
f 5/5/5 4/4/4 2/2/2
f 2/2/2 6/6/6 5/5/5
f 7/7/7 5/5/5 6/6/6
f 4/4/4 8/8/8 1/1/1
f 9/9/9 1/1/1 8/8/8
f 1/1/1 9/9/9 10/10/10
f 9/9/9 8/8/8 11/11/11
f 11/11/11 12/12/12 9/9/9
f 13/13/13 11/11/11 8/8/8
f 11/11/11 13/13/13 14/14/14
f 15/15/15 14/14/14 13/13/13
f 18/18/18 17/17/17 16/16/16
f 19/19/19 16/16/16 17/17/17
f 17/17/17 20/20/20 19/19/19
f 21/21/21 19/19/19 20/20/20
f 21/21/21 20/20/20 22/22/22
f 23/23/23 22/22/22 20/20/20
f 22/22/22 23/23/23 24/24/24
f 25/25/25 24/24/24 23/23/23
f 24/24/24 25/25/25 26/26/26
f 27/27/27 26/26/26 25/25/25
f 30/30/30 29/29/29 28/28/28
f 28/28/28 31/31/31 30/30/30
f 32/32/32 30/30/30 31/31/31
f 30/30/30 32/32/32 33/33/33
f 34/34/34 33/33/33 32/32/32
f 31/31/31 28/28/28 35/35/35
f 36/36/36 35/35/35 28/28/28
f 36/36/36 28/28/28 37/37/37
f 36/36/36 38/38/38 35/35/35
f 39/39/39 38/38/38 36/36/36
f 40/40/40 35/35/35 38/38/38
f 38/38/38 41/41/41 40/40/40
f 42/42/42 40/40/40 41/41/41
f 45/45/45 44/44/44 43/43/43
f 46/46/46 43/43/43 44/44/44
f 43/43/43 46/46/46 47/47/47
f 48/48/48 47/47/47 46/46/46
f 48/48/48 49/49/49 47/47/47
f 50/50/50 47/47/47 49/49/49
f 49/49/49 51/51/51 50/50/50
f 52/52/52 50/50/50 51/51/51
f 51/51/51 53/53/53 52/52/52
f 54/54/54 52/52/52 53/53/53
f 57/57/57 56/56/56 55/55/55
f 57/57/57 58/58/58 56/56/56
f 59/59/59 56/56/56 58/58/58
f 56/56/56 60/60/60 55/55/55
f 56/56/56 59/59/59 60/60/60
f 59/59/59 58/58/58 61/61/61
f 62/62/62 61/61/61 58/58/58
f 61/61/61 62/62/62 63/63/63
f 63/63/63 62/62/62 64/64/64
f 64/64/64 65/65/65 63/63/63
f 61/61/61 66/66/66 59/59/59
f 61/61/61 63/63/63 66/66/66
f 67/67/67 60/60/60 59/59/59
f 67/67/67 59/59/59 66/66/66
f 66/66/66 68/68/68 67/67/67
f 60/60/60 67/67/67 69/69/69
f 60/60/60 69/69/69 55/55/55
f 70/70/70 69/69/69 67/67/67
f 70/70/70 67/67/67 68/68/68
f 69/69/69 71/71/71 55/55/55
f 69/69/69 70/70/70 71/71/71
f 71/71/71 72/72/72 55/55/55
f 72/72/72 73/73/73 55/55/55
f 74/74/74 71/71/71 70/70/70
f 71/71/71 74/74/74 72/72/72
f 70/70/70 68/68/68 74/74/74
f 72/72/72 75/75/75 73/73/73
f 75/75/75 72/72/72 74/74/74
f 76/76/76 73/73/73 75/75/75
f 74/74/74 77/77/77 75/75/75
f 77/77/77 74/74/74 68/68/68
f 75/75/75 78/78/78 76/76/76
f 78/78/78 75/75/75 77/77/77
f 79/79/79 76/76/76 78/78/78
f 78/78/78 80/80/80 79/79/79
f 78/78/78 77/77/77 80/80/80
f 79/79/79 80/80/80 81/81/81
f 81/81/81 80/80/80 82/82/82
f 83/83/83 80/80/80 77/77/77
f 77/77/77 68/68/68 83/83/83
f 80/80/80 84/84/84 82/82/82
f 80/80/80 83/83/83 84/84/84
f 82/82/82 84/84/84 85/85/85
f 86/86/86 83/83/83 68/68/68
f 87/87/87 84/84/84 83/83/83
f 83/83/83 86/86/86 87/87/87
f 88/88/88 85/85/85 84/84/84
f 84/84/84 87/87/87 88/88/88
f 86/86/86 68/68/68 89/89/89
f 66/66/66 89/89/89 68/68/68
f 89/89/89 66/66/66 63/63/63
f 90/90/90 87/87/87 86/86/86
f 86/86/86 89/89/89 90/90/90
f 89/89/89 63/63/63 91/91/91
f 91/91/91 90/90/90 89/89/89
f 88/88/88 92/92/92 85/85/85
f 93/93/93 85/85/85 92/92/92
f 94/94/94 88/88/88 87/87/87
f 87/87/87 90/90/90 94/94/94
f 95/95/95 91/91/91 63/63/63
f 63/63/63 65/65/65 95/95/95
f 65/65/65 96/96/96 95/95/95
f 97/97/97 95/95/95 96/96/96
f 95/95/95 97/97/97 91/91/91
f 96/96/96 98/98/98 97/97/97
f 91/91/91 99/99/99 90/90/90
f 99/99/99 91/91/91 97/97/97
f 100/100/100 97/97/97 98/98/98
f 97/97/97 100/100/100 99/99/99
f 101/101/101 90/90/90 99/99/99
f 101/101/101 94/94/94 90/90/90
f 94/94/94 102/102/102 88/88/88
f 92/92/92 88/88/88 102/102/102
f 99/99/99 103/103/103 101/101/101
f 103/103/103 99/99/99 100/100/100
f 101/101/101 104/104/104 94/94/94
f 102/102/102 94/94/94 104/104/104
f 104/104/104 101/101/101 103/103/103
f 100/100/100 98/98/98 105/105/105
f 106/106/106 105/105/105 98/98/98
f 105/105/105 106/106/106 107/107/107
f 105/105/105 108/108/108 100/100/100
f 103/103/103 100/100/100 108/108/108
f 108/108/108 105/105/105 107/107/107
f 104/104/104 103/103/103 109/109/109
f 108/108/108 109/109/109 103/103/103
f 104/104/104 109/109/109 102/102/102
f 109/109/109 108/108/108 107/107/107
f 110/110/110 102/102/102 109/109/109
f 102/102/102 110/110/110 92/92/92
f 110/110/110 109/109/109 107/107/107
f 111/111/111 92/92/92 110/110/110
f 111/111/111 110/110/110 107/107/107
f 92/92/92 111/111/111 93/93/93
f 112/112/112 111/111/111 107/107/107
f 112/112/112 93/93/93 111/111/111
f 115/115/115 114/114/114 113/113/113
f 114/114/114 115/115/115 116/116/116
f 117/117/117 116/116/116 115/115/115
f 116/116/116 117/117/117 118/118/118
f 119/119/119 115/115/115 113/113/113
f 115/115/115 119/119/119 117/117/117
f 120/120/120 118/118/118 117/117/117
f 121/121/121 117/117/117 119/119/119
f 117/117/117 121/121/121 120/120/120
f 122/122/122 119/119/119 113/113/113
f 119/119/119 122/122/122 121/121/121
f 120/120/120 123/123/123 118/118/118
f 124/124/124 118/118/118 123/123/123
f 123/123/123 125/125/125 124/124/124
f 125/125/125 126/126/126 124/124/124
f 125/125/125 127/127/127 126/126/126
f 128/128/128 127/127/127 125/125/125
f 127/127/127 128/128/128 129/129/129
f 130/130/130 129/129/129 128/128/128
f 129/129/129 130/130/130 131/131/131
f 128/128/128 125/125/125 132/132/132
f 128/128/128 132/132/132 130/130/130
f 125/125/125 123/123/123 133/133/133
f 133/133/133 132/132/132 125/125/125
f 132/132/132 133/133/133 134/134/134
f 123/123/123 120/120/120 135/135/135
f 135/135/135 133/133/133 123/123/123
f 136/136/136 131/131/131 130/130/130
f 131/131/131 136/136/136 137/137/137
f 138/138/138 130/130/130 132/132/132
f 130/130/130 138/138/138 136/136/136
f 132/132/132 134/134/134 138/138/138
f 139/139/139 136/136/136 138/138/138
f 136/136/136 139/139/139 137/137/137
f 138/138/138 140/140/140 139/139/139
f 140/140/140 138/138/138 134/134/134
f 141/141/141 139/139/139 140/140/140
f 139/139/139 141/141/141 137/137/137
f 140/140/140 142/142/142 141/141/141
f 140/140/140 134/134/134 142/142/142
f 141/141/141 143/143/143 137/137/137
f 143/143/143 141/141/141 142/142/142
f 143/143/143 144/144/144 137/137/137
f 144/144/144 145/145/145 137/137/137
f 145/145/145 144/144/144 146/146/146
f 144/144/144 143/143/143 147/147/147
f 142/142/142 147/147/147 143/143/143
f 147/147/147 146/146/146 144/144/144
f 142/142/142 148/148/148 147/147/147
f 148/148/148 142/142/142 134/134/134
f 147/147/147 149/149/149 146/146/146
f 149/149/149 147/147/147 148/148/148
f 149/149/149 148/148/148 150/150/150
f 151/151/151 146/146/146 149/149/149
f 149/149/149 150/150/150 151/151/151
f 151/151/151 150/150/150 152/152/152
f 152/152/152 150/150/150 153/153/153
f 148/148/148 134/134/134 154/154/154
f 154/154/154 150/150/150 148/148/148
f 153/153/153 150/150/150 155/155/155
f 153/153/153 155/155/155 156/156/156
f 155/155/155 150/150/150 157/157/157
f 154/154/154 157/157/157 150/150/150
f 158/158/158 156/156/156 155/155/155
f 155/155/155 157/157/157 158/158/158
f 156/156/156 158/158/158 159/159/159
f 160/160/160 154/154/154 134/134/134
f 160/160/160 134/134/134 133/133/133
f 133/133/133 135/135/135 160/160/160
f 160/160/160 161/161/161 154/154/154
f 157/157/157 154/154/154 161/161/161
f 161/161/161 160/160/160 135/135/135
f 162/162/162 158/158/158 157/157/157
f 157/157/157 161/161/161 162/162/162
f 163/163/163 159/159/159 158/158/158
f 158/158/158 162/162/162 163/163/163
f 135/135/135 164/164/164 161/161/161
f 164/164/164 135/135/135 120/120/120
f 164/164/164 120/120/120 121/121/121
f 165/165/165 162/162/162 161/161/161
f 165/165/165 161/161/161 164/164/164
f 121/121/121 166/166/166 164/164/164
f 165/165/165 164/164/164 166/166/166
f 166/166/166 121/121/121 122/122/122
f 162/162/162 165/165/165 167/167/167
f 166/166/166 167/167/167 165/165/165
f 166/166/166 122/122/122 167/167/167
f 167/167/167 163/163/163 162/162/162
f 168/168/168 167/167/167 122/122/122
f 167/167/167 168/168/168 163/163/163
f 168/168/168 122/122/122 113/113/113
f 163/163/163 169/169/169 159/159/159
f 169/169/169 163/163/163 168/168/168
f 169/169/169 168/168/168 113/113/113
f 170/170/170 159/159/159 169/169/169
f 170/170/170 169/169/169 113/113/113
