g Egg Leaf
v 0.0011624587 -0.011441193 0.6800069
v 0.001406033 -0.009541827 0.749233
v 0.015021393 -0.009783425 0.7455952
v 0.02863675 -0.010013316 0.7419567
v 0.12807311 0.09064329 1.0322391
v 0.098172985 0.038804602 0.9405264
v 0.05906437 0.0468082 0.9565149
v 0.047380168 0.009268555 0.85056144
v -0.009732702 0.01810734 0.87968415
v -0.018751847 -0.004861868 0.7904994
v 0.019704683 -0.0074899183 0.7773232
v 0.015021393 -0.009783425 0.7455952
v 0.001406033 -0.009541827 0.749233
v 0.13728161 0.030831218 0.92452276
v 0.098172985 0.038804602 0.9405264
v 0.12807311 0.09064329 1.0322391
v 0.047380168 0.009268555 0.85056144
v 0.10449302 0.00047150854 0.8214261
v 0.0581612 -0.010084706 0.76414037
v 0.019704683 -0.0074899183 0.7773232
v 0.02863675 -0.010013316 0.7419567
v 0.015021393 -0.009783425 0.7455952
v 0.0011624587 -0.007461056 0.6800069
v 0.015021393 -0.0058116037 0.7453379
v 0.001406033 -0.005570019 0.74897563
v 0.02863675 -0.006041491 0.74169934
v 0.12807311 0.0942041 1.0304608
v 0.05906437 0.050368972 0.9547366
v 0.098172985 0.0423654 0.9387481
v 0.047380168 0.0130779715 0.84940827
v -0.009732702 0.021916766 0.8785309
v -0.018751847 -0.0009576256 0.7897258
v 0.019704683 -0.003585685 0.7765496
v 0.015021393 -0.0058116037 0.7453379
v 0.001406033 -0.005570019 0.74897563
v 0.13728161 0.034392025 0.9227445
v 0.12807311 0.0942041 1.0304608
v 0.098172985 0.0423654 0.9387481
v 0.047380168 0.0130779715 0.84940827
v 0.10449302 0.004280911 0.82027286
v 0.0581612 -0.0061804713 0.7633668
v 0.019704683 -0.003585685 0.7765496
v 0.02863675 -0.006041491 0.74169934
v 0.015021393 -0.0058116037 0.7453379
v -1.0842021E-21 0 -0.0016564941
v 0.13013719 -0.075134665 0.029950792
v 0.15026946 0 0.029950825
v 0.23921989 0 0.087430485
v 0.20717055 -0.11960991 0.087430455
v 0.075134724 -0.1301371 0.029950825
v 0.25051066 -0.14463234 0.17601083
v 0.28926474 0 0.17601085
v 0.26680526 -0.15404004 0.30697814
v 0.3080801 0 0.30697808
v 0.29120424 0 0.43015963
v 0.14463244 -0.25051054 0.17601082
v 0.11960997 -0.20717041 0.087430485
v -4.5258304E-11 -0.2892647 0.17601083
v 3.3675163E-10 -0.15026946 0.029950792
v -1.7441133E-10 -0.23921987 0.087430455
v -0.075134724 -0.1301371 0.029950825
v -0.13013719 -0.075134665 0.029950792
v -0.15026946 0 0.029950825
v -0.119609974 -0.20717041 0.087430485
v -0.20717055 -0.11960991 0.087430455
v -0.23921989 0 0.087430485
v -0.14463244 -0.25051054 0.17601082
v -0.25051066 -0.14463234 0.17601083
v -0.28926474 0 0.17601085
v -0.26680526 -0.15404004 0.30697814
v -0.3080801 0 0.30697808
v -0.29120424 0 0.43015963
v -0.15404017 -0.26680514 0.3069781
v -0.25219032 -0.14560209 0.4301597
v -0.24107079 0 0.5568212
v -0 -0.30808008 0.30697808
v -0.14560226 -0.25219023 0.43015963
v -0.20877348 -0.120535396 0.5568212
v 0.15404017 -0.26680514 0.3069781
v -1.0842021E-21 -0.29120424 0.43015963
v 0.14560226 -0.25219023 0.43015963
v -0.15995911 -0.09235243 0.6312612
v -0.18470488 0 0.6312612
v -0.12053553 -0.20877342 0.5568212
v 0.25219032 -0.14560209 0.4301597
v 0.24107079 0 0.5568212
v 0.20877348 -0.120535396 0.5568212
v 0.18470488 0 0.6312612
v 0.12053553 -0.20877342 0.5568212
v 0.15995911 -0.09235243 0.6312612
v -8.88302E-11 -0.24107078 0.5568213
v -0.09235253 -0.15995908 0.6312612
v 0.09235254 -0.15995908 0.6312612
v -1.4210854E-16 -0.18470487 0.6312611
v 0.09370495 -0.05410056 0.694927
v 0.108201206 0 0.6949269
v -1.3352966E-10 0 0.71944124
v 0.054100648 -0.093704924 0.6949269
v -1.3352966E-10 -0.10820116 0.6949268
v -0.054100648 -0.093704924 0.6949269
v -0.09370495 -0.05410056 0.694927
v -0.108201206 0 0.6949269
v -1.3352966E-10 0 0.71944124
v -0.108201206 0 0.6949269
v -0.09370495 0.05410056 0.694927
v -0.18470488 0 0.6312612
v -0.15995911 0.09235243 0.6312612
v -0.24107079 0 0.5568212
v -0.054100648 0.093704924 0.6949269
v -0.20877348 0.120535396 0.5568212
v -0.09235253 0.15995908 0.6312612
v -1.3352966E-10 0.10820116 0.6949268
v -0.25219032 0.14560209 0.4301597
v -0.29120424 0 0.43015963
v -0.26680526 0.15404004 0.30697814
v -0.3080801 0 0.30697808
v -0.28926474 0 0.17601085
v -0.25051066 0.14463234 0.17601083
v -0.23921989 0 0.087430485
v -0.20717055 0.11960991 0.087430455
v -0.15026946 0 0.029950825
v -0.14463244 0.25051054 0.17601082
v -0.15404017 0.26680514 0.3069781
v -4.5258304E-11 0.2892647 0.17601083
v -0.14560226 0.25219023 0.43015963
v -0.13013719 0.075134665 0.029950792
v -1.0842021E-21 0 -0.0016564941
v -0.119609974 0.20717041 0.087430485
v -0.075134724 0.1301371 0.029950825
v -1.7441133E-10 0.23921987 0.087430455
v 3.3675163E-10 0.15026946 0.029950792
v 0.11960997 0.20717041 0.087430485
v 0.075134724 0.1301371 0.029950825
v 0.13013719 0.075134665 0.029950792
v 0.15026946 0 0.029950825
v 0.23921989 0 0.087430485
v 0.20717055 0.11960991 0.087430455
v 0.14463244 0.25051054 0.17601082
v 0.25051066 0.14463234 0.17601083
v 0.26680526 0.15404004 0.30697814
v 0.28926474 0 0.17601085
v 0.3080801 0 0.30697808
v 0.29120424 0 0.43015963
v 0.15404017 0.26680514 0.3069781
v 0.25219032 0.14560209 0.4301597
v 0.24107079 0 0.5568212
v 0.14560226 0.25219023 0.43015963
v 0.20877348 0.120535396 0.5568212
v 0.18470488 0 0.6312612
v -0 0.30808008 0.30697808
v -1.0842021E-21 0.29120424 0.43015963
v 0.12053553 0.20877342 0.5568212
v 0.15995911 0.09235243 0.6312612
v -0.12053553 0.20877342 0.5568212
v -8.88302E-11 0.24107078 0.5568213
v -1.4210854E-16 0.18470487 0.6312611
v 0.09235254 0.15995908 0.6312612
v 0.054100648 0.093704924 0.6949269
v 0.09370495 0.05410056 0.694927
v 0.108201206 0 0.6949269
vt 0.89160156 0.111572266
vt 0.8828125 0.23461914
vt 0.88964844 0.23010254
vt 0.89697266 0.22558594
vt 0.9472656 0.70996094
vt 0.9321289 0.5961914
vt 0.9121094 0.61621094
vt 0.90625 0.48486328
vt 0.8774414 0.5209961
vt 0.8725586 0.4104004
vt 0.89208984 0.3942871
vt 0.88964844 0.35498047
vt 0.8828125 0.359375
vt 0.95214844 0.7290039
vt 0.9321289 0.74902344
vt 0.9472656 0.8623047
vt 0.90625 0.6376953
vt 0.9355469 0.6015625
vt 0.9116211 0.53027344
vt 0.89208984 0.546875
vt 0.89697266 0.5029297
vt 0.88964844 0.5073242
vt 0.89160156 0.111572266
vt 0.88964844 0.22973633
vt 0.8828125 0.23425293
vt 0.89697266 0.22521973
vt 0.9472656 0.70751953
vt 0.9121094 0.61376953
vt 0.9321289 0.5942383
vt 0.90625 0.48339844
vt 0.8774414 0.51953125
vt 0.8725586 0.40942383
vt 0.89208984 0.39331055
vt 0.88964844 0.3544922
vt 0.8828125 0.35913086
vt 0.95214844 0.7270508
vt 0.9472656 0.86035156
vt 0.9321289 0.74658203
vt 0.90625 0.63623047
vt 0.9355469 0.60009766
vt 0.9116211 0.5292969
vt 0.89208984 0.54589844
vt 0.89697266 0.5029297
vt 0.88964844 0.5073242
vt 0.39331055 0.025817871
vt 0.54248047 0.103759766
vt 0.57666016 0.087890625
vt 0.68359375 0.16333008
vt 0.6064453 0.1772461
vt 0.47875977 0.1161499
vt 0.62890625 0.26220703
vt 0.7363281 0.26220703
vt 0.64697266 0.3864746
vt 0.7739258 0.3864746
vt 0.7573242 0.5053711
vt 0.51416016 0.26220703
vt 0.50683594 0.18518066
vt 0.39331055 0.26220703
vt 0.39453125 0.121520996
vt 0.3935547 0.18823242
vt 0.32421875 0.1194458
vt 0.2524414 0.109375
vt 0.19543457 0.087890625
vt 0.2919922 0.18615723
vt 0.1899414 0.17822266
vt 0.0947876 0.16333008
vt 0.2788086 0.26220703
vt 0.16320801 0.26220703
vt 0.04562378 0.26220703
vt 0.14477539 0.3864746
vt 0.018203735 0.3864746
vt 0.040130615 0.5053711
vt 0.2697754 0.3864746
vt 0.15576172 0.5053711
vt 0.107788086 0.64208984
vt 0.39331055 0.3864746
vt 0.2746582 0.5053711
vt 0.1940918 0.625
vt 0.5214844 0.3864746
vt 0.39331055 0.5053711
vt 0.51660156 0.5053711
vt 0.23901367 0.70166016
vt 0.18469238 0.72314453
vt 0.2919922 0.61621094
vt 0.6357422 0.5053711
vt 0.69384766 0.64208984
vt 0.5966797 0.6254883
vt 0.6166992 0.72314453
vt 0.4975586 0.6166992
vt 0.5498047 0.7001953
vt 0.39331055 0.61376953
vt 0.31225586 0.6879883
vt 0.47436523 0.6875
vt 0.39331055 0.68359375
vt 0.5058594 0.7680664
vt 0.5488281 0.7792969
vt 0.39331055 0.8276367
vt 0.45141602 0.7626953
vt 0.39086914 0.76123047
vt 0.3322754 0.7636719
vt 0.2836914 0.7705078
vt 0.25634766 0.7792969
vt 0.39331055 0.8276367
vt 0.25634766 0.7792969
vt 0.2836914 0.7705078
vt 0.18469238 0.72314453
vt 0.23901367 0.70166016
vt 0.107788086 0.64208984
vt 0.3322754 0.7636719
vt 0.1940918 0.625
vt 0.31225586 0.6879883
vt 0.39086914 0.76123047
vt 0.15576172 0.5053711
vt 0.040130615 0.5053711
vt 0.14477539 0.3864746
vt 0.018203735 0.3864746
vt 0.04562378 0.26220703
vt 0.16320801 0.26220703
vt 0.0947876 0.16333008
vt 0.1899414 0.17822266
vt 0.19543457 0.087890625
vt 0.2788086 0.26220703
vt 0.2697754 0.3864746
vt 0.39331055 0.26220703
vt 0.2746582 0.5053711
vt 0.2524414 0.109375
vt 0.39331055 0.025817871
vt 0.2919922 0.18615723
vt 0.32421875 0.1194458
vt 0.3935547 0.18823242
vt 0.39453125 0.121520996
vt 0.50683594 0.18518066
vt 0.47875977 0.1161499
vt 0.54248047 0.103759766
vt 0.57666016 0.087890625
vt 0.68359375 0.16333008
vt 0.6064453 0.1772461
vt 0.51416016 0.26220703
vt 0.62890625 0.26220703
vt 0.64697266 0.3864746
vt 0.7363281 0.26220703
vt 0.7739258 0.3864746
vt 0.7573242 0.5053711
vt 0.5214844 0.3864746
vt 0.6357422 0.5053711
vt 0.69384766 0.64208984
vt 0.51660156 0.5053711
vt 0.5966797 0.6254883
vt 0.6166992 0.72314453
vt 0.39331055 0.3864746
vt 0.39331055 0.5053711
vt 0.4975586 0.6166992
vt 0.5498047 0.7001953
vt 0.2919922 0.61621094
vt 0.39331055 0.61376953
vt 0.39331055 0.68359375
vt 0.47436523 0.6875
vt 0.45141602 0.7626953
vt 0.5058594 0.7680664
vt 0.5488281 0.7792969
vn -0.009987672 -0.9995753 0.027375022
vn 0.005312715 -0.99627656 0.08605088
vn -0.008044012 -0.9984274 0.0554812
vn -0.018147405 -0.99855727 0.050537616
vn 0.020724095 -0.8732507 0.48683015
vn -0.016371274 -0.909973 0.41434428
vn -0.008308553 -0.9159788 0.40114072
vn -0.011952622 -0.96192706 0.27304474
vn 0.0023909737 -0.95558375 0.29471025
vn -0.0108118765 -0.9818541 0.18932965
vn -0.014324794 -0.98917514 0.14603862
vn -0.008044012 -0.9984274 0.0554812
vn 0.005312715 -0.99627656 0.08605088
vn -0.014279091 -0.92229533 0.3862219
vn -0.016371274 -0.909973 0.41434428
vn 0.020724095 -0.8732507 0.48683015
vn -0.011952622 -0.96192706 0.27304474
vn -0.022388099 -0.9683728 0.24850123
vn -0.023729125 -0.9861448 0.16418058
vn -0.014324794 -0.98917514 0.14603862
vn -0.018147405 -0.99855727 0.050537616
vn -0.008044012 -0.9984274 0.0554812
vn 0.009992054 0.9995758 -0.027356584
vn 0.008219183 0.9984487 -0.055068184
vn -0.005299028 0.9962813 -0.08599606
vn 0.01849135 0.9985825 -0.049910575
vn -0.020724596 0.8732507 -0.48683015
vn 0.0083396025 0.9160632 -0.40094715
vn 0.016413243 0.91001123 -0.41425863
vn 0.012056636 0.9619713 -0.27288425
vn -0.0022973772 0.95563555 -0.29454267
vn 0.010853901 0.98184913 -0.18935242
vn 0.014458688 0.9892489 -0.14552484
vn 0.008219183 0.9984487 -0.055068184
vn -0.005299028 0.9962813 -0.08599606
vn 0.014296842 0.9223723 -0.3860375
vn -0.020724596 0.8732507 -0.48683015
vn 0.016413243 0.91001123 -0.41425863
vn 0.012056636 0.9619713 -0.27288425
vn 0.022521567 0.96843207 -0.24825795
vn 0.023836985 0.9861411 -0.16418776
vn 0.014458688 0.9892489 -0.14552484
vn 0.01849135 0.9985825 -0.049910575
vn 0.008219183 0.9984487 -0.055068184
vn -0 0 -1
vn 0.35158598 -0.2029883 -0.9138835
vn 0.40597665 0 -0.9138835
vn 0.7454141 0 -0.6666018
vn 0.64554745 -0.37270692 -0.6666019
vn 0.20298845 -0.351586 -0.9138834
vn 0.8223221 -0.47476777 -0.313659
vn 0.9495357 0 -0.31365895
vn 0.86602116 -0.49999732 -0.003195576
vn 0.9999949 0 -0.003195568
vn 0.9685071 0 0.24898599
vn 0.47476768 -0.822322 -0.3136592
vn 0.37270683 -0.64554733 -0.666602
vn -0 -0.9495356 -0.31365895
vn -0 -0.4059767 -0.9138834
vn -0 -0.74541414 -0.6666017
vn -0.2029884 -0.35158616 -0.9138834
vn -0.35158598 -0.20298828 -0.9138835
vn -0.40597668 0 -0.9138835
vn -0.37270686 -0.64554733 -0.66660196
vn -0.64554745 -0.3727069 -0.6666019
vn -0.74541396 0 -0.6666018
vn -0.4747677 -0.822322 -0.31365916
vn -0.8223221 -0.47476777 -0.313659
vn -0.9495357 0 -0.31365895
vn -0.86602116 -0.49999732 -0.0031955128
vn -0.9999949 0 -0.003195568
vn -0.9685071 0 0.24898599
vn -0.4999976 -0.866021 -0.0031957102
vn -0.8387519 -0.4842533 0.24898605
vn -0.8766974 0 0.4810423
vn -0 -0.9999949 -0.00319571
vn -0.4842538 -0.8387517 0.24898586
vn -0.7592423 -0.43834847 0.48104224
vn 0.49999753 -0.866021 -0.003195761
vn -0 -0.9685071 0.24898581
vn 0.48425364 -0.83875173 0.24898583
vn -0.6338849 -0.36597356 0.6813613
vn -0.7319473 0 0.68136126
vn -0.4383488 -0.7592421 0.48104224
vn 0.8387519 -0.4842532 0.24898612
vn 0.8766974 0 0.4810423
vn 0.7592423 -0.43834856 0.48104224
vn 0.73194724 0 0.6813613
vn 0.43834892 -0.7592421 0.48104218
vn 0.6338849 -0.36597356 0.6813613
vn -0 -0.8766973 0.48104241
vn -0.3659734 -0.6338849 0.6813615
vn 0.36597356 -0.6338848 0.6813615
vn -1.2332207E-07 -0.731947 0.6813616
vn 0.40936857 -0.23634918 0.88122445
vn 0.4726987 0 0.88122416
vn -0 0 1
vn 0.23634855 -0.40936935 0.8812243
vn -0 -0.47269884 0.88122404
vn -0.23634854 -0.40936926 0.8812243
vn -0.40936857 -0.23634918 0.88122445
vn -0.4726987 0 0.88122416
vn -0 0 1
vn -0.4726987 0 0.88122416
vn -0.4093685 0.23634917 0.88122445
vn -0.7319473 0 0.68136126
vn -0.63388485 0.3659736 0.6813614
vn -0.8766974 0 0.4810423
vn -0.23634854 0.40936926 0.8812243
vn -0.7592423 0.43834847 0.4810423
vn -0.3659734 0.6338849 0.6813615
vn -0 0.47269884 0.88122404
vn -0.83875185 0.4842533 0.24898604
vn -0.9685071 0 0.24898599
vn -0.86602116 0.49999732 -0.0031955163
vn -0.9999949 0 -0.003195568
vn -0.9495357 0 -0.31365895
vn -0.8223221 0.47476777 -0.313659
vn -0.74541396 0 -0.6666018
vn -0.64554745 0.3727069 -0.66660184
vn -0.40597668 0 -0.9138835
vn -0.47476777 0.822322 -0.3136592
vn -0.4999976 0.866021 -0.003195705
vn -0 0.9495356 -0.31365895
vn -0.4842538 0.8387517 0.24898586
vn -0.35158598 0.20298828 -0.9138835
vn -0 0 -1
vn -0.37270686 0.64554733 -0.66660196
vn -0.2029884 0.3515862 -0.9138834
vn -0 0.7454141 -0.6666018
vn -0 0.4059767 -0.9138834
vn 0.37270686 0.64554733 -0.666602
vn 0.20298845 0.35158607 -0.9138834
vn 0.35158595 0.2029883 -0.9138835
vn 0.40597665 0 -0.9138835
vn 0.7454141 0 -0.6666018
vn 0.64554745 0.37270692 -0.6666019
vn 0.47476777 0.822322 -0.3136592
vn 0.8223221 0.47476777 -0.313659
vn 0.86602116 0.49999732 -0.0031955708
vn 0.9495357 0 -0.31365895
vn 0.9999949 0 -0.003195568
vn 0.9685071 0 0.24898599
vn 0.49999753 0.866021 -0.003195761
vn 0.8387519 0.4842532 0.24898612
vn 0.8766974 0 0.4810423
vn 0.48425364 0.83875173 0.24898583
vn 0.7592423 0.43834856 0.48104224
vn 0.73194724 0 0.6813613
vn -0 0.9999949 -0.0031957126
vn -0 0.9685071 0.24898581
vn 0.43834892 0.7592421 0.48104218
vn 0.6338849 0.36597356 0.68136126
vn -0.43834886 0.7592421 0.48104227
vn -0 0.8766973 0.48104241
vn -1.2332207E-07 0.731947 0.6813616
vn 0.36597356 0.6338848 0.6813615
vn 0.23634854 0.40936923 0.8812243
vn 0.40936854 0.23634917 0.88122445
vn 0.4726987 0 0.88122416
g Egg Leaf_0
f 3/3/3 2/2/2 1/1/1
f 4/4/4 3/3/3 1/1/1
f 7/7/7 6/6/6 5/5/5
f 6/6/6 7/7/7 8/8/8
f 9/9/9 8/8/8 7/7/7
f 9/9/9 10/10/10 8/8/8
f 11/11/11 8/8/8 10/10/10
f 11/11/11 10/10/10 12/12/12
f 13/13/13 12/12/12 10/10/10
f 16/16/16 15/15/15 14/14/14
f 15/15/15 17/17/17 14/14/14
f 18/18/18 14/14/14 17/17/17
f 18/18/18 17/17/17 19/19/19
f 20/20/20 19/19/19 17/17/17
f 19/19/19 20/20/20 21/21/21
f 22/22/22 21/21/21 20/20/20
f 25/25/25 24/24/24 23/23/23
f 24/24/24 26/26/26 23/23/23
f 29/29/29 28/28/28 27/27/27
f 29/29/29 30/30/30 28/28/28
f 31/31/31 28/28/28 30/30/30
f 31/31/31 30/30/30 32/32/32
f 33/33/33 32/32/32 30/30/30
f 33/33/33 34/34/34 32/32/32
f 35/35/35 32/32/32 34/34/34
f 38/38/38 37/37/37 36/36/36
f 38/38/38 36/36/36 39/39/39
f 40/40/40 39/39/39 36/36/36
f 40/40/40 41/41/41 39/39/39
f 42/42/42 39/39/39 41/41/41
f 41/41/41 43/43/43 42/42/42
f 44/44/44 42/42/42 43/43/43
f 47/47/47 46/46/46 45/45/45
f 47/47/47 48/48/48 46/46/46
f 49/49/49 46/46/46 48/48/48
f 46/46/46 50/50/50 45/45/45
f 46/46/46 49/49/49 50/50/50
f 49/49/49 48/48/48 51/51/51
f 52/52/52 51/51/51 48/48/48
f 51/51/51 52/52/52 53/53/53
f 53/53/53 52/52/52 54/54/54
f 54/54/54 55/55/55 53/53/53
f 51/51/51 56/56/56 49/49/49
f 51/51/51 53/53/53 56/56/56
f 57/57/57 50/50/50 49/49/49
f 57/57/57 49/49/49 56/56/56
f 56/56/56 58/58/58 57/57/57
f 50/50/50 57/57/57 59/59/59
f 50/50/50 59/59/59 45/45/45
f 60/60/60 59/59/59 57/57/57
f 60/60/60 57/57/57 58/58/58
f 59/59/59 61/61/61 45/45/45
f 59/59/59 60/60/60 61/61/61
f 61/61/61 62/62/62 45/45/45
f 62/62/62 63/63/63 45/45/45
f 64/64/64 61/61/61 60/60/60
f 61/61/61 64/64/64 62/62/62
f 60/60/60 58/58/58 64/64/64
f 62/62/62 65/65/65 63/63/63
f 65/65/65 62/62/62 64/64/64
f 66/66/66 63/63/63 65/65/65
f 64/64/64 67/67/67 65/65/65
f 67/67/67 64/64/64 58/58/58
f 65/65/65 68/68/68 66/66/66
f 68/68/68 65/65/65 67/67/67
f 69/69/69 66/66/66 68/68/68
f 68/68/68 70/70/70 69/69/69
f 68/68/68 67/67/67 70/70/70
f 69/69/69 70/70/70 71/71/71
f 71/71/71 70/70/70 72/72/72
f 73/73/73 70/70/70 67/67/67
f 67/67/67 58/58/58 73/73/73
f 70/70/70 74/74/74 72/72/72
f 70/70/70 73/73/73 74/74/74
f 72/72/72 74/74/74 75/75/75
f 76/76/76 73/73/73 58/58/58
f 77/77/77 74/74/74 73/73/73
f 73/73/73 76/76/76 77/77/77
f 78/78/78 75/75/75 74/74/74
f 74/74/74 77/77/77 78/78/78
f 76/76/76 58/58/58 79/79/79
f 56/56/56 79/79/79 58/58/58
f 79/79/79 56/56/56 53/53/53
f 80/80/80 77/77/77 76/76/76
f 76/76/76 79/79/79 80/80/80
f 79/79/79 53/53/53 81/81/81
f 81/81/81 80/80/80 79/79/79
f 78/78/78 82/82/82 75/75/75
f 83/83/83 75/75/75 82/82/82
f 84/84/84 78/78/78 77/77/77
f 77/77/77 80/80/80 84/84/84
f 85/85/85 81/81/81 53/53/53
f 53/53/53 55/55/55 85/85/85
f 55/55/55 86/86/86 85/85/85
f 87/87/87 85/85/85 86/86/86
f 85/85/85 87/87/87 81/81/81
f 86/86/86 88/88/88 87/87/87
f 81/81/81 89/89/89 80/80/80
f 89/89/89 81/81/81 87/87/87
f 90/90/90 87/87/87 88/88/88
f 87/87/87 90/90/90 89/89/89
f 91/91/91 80/80/80 89/89/89
f 91/91/91 84/84/84 80/80/80
f 84/84/84 92/92/92 78/78/78
f 82/82/82 78/78/78 92/92/92
f 89/89/89 93/93/93 91/91/91
f 93/93/93 89/89/89 90/90/90
f 91/91/91 94/94/94 84/84/84
f 92/92/92 84/84/84 94/94/94
f 94/94/94 91/91/91 93/93/93
f 90/90/90 88/88/88 95/95/95
f 96/96/96 95/95/95 88/88/88
f 95/95/95 96/96/96 97/97/97
f 95/95/95 98/98/98 90/90/90
f 93/93/93 90/90/90 98/98/98
f 98/98/98 95/95/95 97/97/97
f 94/94/94 93/93/93 99/99/99
f 98/98/98 99/99/99 93/93/93
f 94/94/94 99/99/99 92/92/92
f 99/99/99 98/98/98 97/97/97
f 100/100/100 92/92/92 99/99/99
f 92/92/92 100/100/100 82/82/82
f 100/100/100 99/99/99 97/97/97
f 101/101/101 82/82/82 100/100/100
f 101/101/101 100/100/100 97/97/97
f 82/82/82 101/101/101 83/83/83
f 102/102/102 101/101/101 97/97/97
f 102/102/102 83/83/83 101/101/101
f 105/105/105 104/104/104 103/103/103
f 104/104/104 105/105/105 106/106/106
f 107/107/107 106/106/106 105/105/105
f 106/106/106 107/107/107 108/108/108
f 109/109/109 105/105/105 103/103/103
f 105/105/105 109/109/109 107/107/107
f 110/110/110 108/108/108 107/107/107
f 111/111/111 107/107/107 109/109/109
f 107/107/107 111/111/111 110/110/110
f 112/112/112 109/109/109 103/103/103
f 109/109/109 112/112/112 111/111/111
f 110/110/110 113/113/113 108/108/108
f 114/114/114 108/108/108 113/113/113
f 113/113/113 115/115/115 114/114/114
f 115/115/115 116/116/116 114/114/114
f 115/115/115 117/117/117 116/116/116
f 118/118/118 117/117/117 115/115/115
f 117/117/117 118/118/118 119/119/119
f 120/120/120 119/119/119 118/118/118
f 119/119/119 120/120/120 121/121/121
f 118/118/118 115/115/115 122/122/122
f 118/118/118 122/122/122 120/120/120
f 115/115/115 113/113/113 123/123/123
f 123/123/123 122/122/122 115/115/115
f 122/122/122 123/123/123 124/124/124
f 113/113/113 110/110/110 125/125/125
f 125/125/125 123/123/123 113/113/113
f 126/126/126 121/121/121 120/120/120
f 121/121/121 126/126/126 127/127/127
f 128/128/128 120/120/120 122/122/122
f 120/120/120 128/128/128 126/126/126
f 122/122/122 124/124/124 128/128/128
f 129/129/129 126/126/126 128/128/128
f 126/126/126 129/129/129 127/127/127
f 128/128/128 130/130/130 129/129/129
f 130/130/130 128/128/128 124/124/124
f 131/131/131 129/129/129 130/130/130
f 129/129/129 131/131/131 127/127/127
f 130/130/130 132/132/132 131/131/131
f 130/130/130 124/124/124 132/132/132
f 131/131/131 133/133/133 127/127/127
f 133/133/133 131/131/131 132/132/132
f 133/133/133 134/134/134 127/127/127
f 134/134/134 135/135/135 127/127/127
f 135/135/135 134/134/134 136/136/136
f 134/134/134 133/133/133 137/137/137
f 132/132/132 137/137/137 133/133/133
f 137/137/137 136/136/136 134/134/134
f 132/132/132 138/138/138 137/137/137
f 138/138/138 132/132/132 124/124/124
f 137/137/137 139/139/139 136/136/136
f 139/139/139 137/137/137 138/138/138
f 139/139/139 138/138/138 140/140/140
f 141/141/141 136/136/136 139/139/139
f 139/139/139 140/140/140 141/141/141
f 141/141/141 140/140/140 142/142/142
f 142/142/142 140/140/140 143/143/143
f 138/138/138 124/124/124 144/144/144
f 144/144/144 140/140/140 138/138/138
f 143/143/143 140/140/140 145/145/145
f 143/143/143 145/145/145 146/146/146
f 145/145/145 140/140/140 147/147/147
f 144/144/144 147/147/147 140/140/140
f 148/148/148 146/146/146 145/145/145
f 145/145/145 147/147/147 148/148/148
f 146/146/146 148/148/148 149/149/149
f 150/150/150 144/144/144 124/124/124
f 150/150/150 124/124/124 123/123/123
f 123/123/123 125/125/125 150/150/150
f 150/150/150 151/151/151 144/144/144
f 147/147/147 144/144/144 151/151/151
f 151/151/151 150/150/150 125/125/125
f 152/152/152 148/148/148 147/147/147
f 147/147/147 151/151/151 152/152/152
f 153/153/153 149/149/149 148/148/148
f 148/148/148 152/152/152 153/153/153
f 125/125/125 154/154/154 151/151/151
f 154/154/154 125/125/125 110/110/110
f 154/154/154 110/110/110 111/111/111
f 155/155/155 152/152/152 151/151/151
f 155/155/155 151/151/151 154/154/154
f 111/111/111 156/156/156 154/154/154
f 155/155/155 154/154/154 156/156/156
f 156/156/156 111/111/111 112/112/112
f 152/152/152 155/155/155 157/157/157
f 156/156/156 157/157/157 155/155/155
f 156/156/156 112/112/112 157/157/157
f 157/157/157 153/153/153 152/152/152
f 158/158/158 157/157/157 112/112/112
f 157/157/157 158/158/158 153/153/153
f 158/158/158 112/112/112 103/103/103
f 153/153/153 159/159/159 149/149/149
f 159/159/159 153/153/153 158/158/158
f 159/159/159 158/158/158 103/103/103
f 160/160/160 149/149/149 159/159/159
f 160/160/160 159/159/159 103/103/103
