g Egg
v -1.0842021E-21 0 -0.0016564941
v 0.13013719 -0.075134665 0.029950792
v 0.15026946 0 0.029950825
v 0.23921989 0 0.087430485
v 0.20717055 -0.11960991 0.087430455
v 0.075134724 -0.1301371 0.029950825
v 0.25051066 -0.14463234 0.17601083
v 0.28926474 0 0.17601085
v 0.26680526 -0.15404004 0.30697814
v 0.3080801 0 0.30697808
v 0.29120424 0 0.43015963
v 0.14463244 -0.25051054 0.17601082
v 0.11960997 -0.20717041 0.087430485
v -4.5258304E-11 -0.2892647 0.17601083
v 3.3675163E-10 -0.15026946 0.029950792
v -1.7441133E-10 -0.23921987 0.087430455
v -0.075134724 -0.1301371 0.029950825
v -0.13013719 -0.075134665 0.029950792
v -0.15026946 0 0.029950825
v -0.119609974 -0.20717041 0.087430485
v -0.20717055 -0.11960991 0.087430455
v -0.23921989 0 0.087430485
v -0.14463244 -0.25051054 0.17601082
v -0.25051066 -0.14463234 0.17601083
v -0.28926474 0 0.17601085
v -0.26680526 -0.15404004 0.30697814
v -0.3080801 0 0.30697808
v -0.29120424 0 0.43015963
v -0.15404017 -0.26680514 0.3069781
v -0.25219032 -0.14560209 0.4301597
v -0.24107079 0 0.5568212
v -0 -0.30808008 0.30697808
v -0.14560226 -0.25219023 0.43015963
v -0.20877348 -0.120535396 0.5568212
v 0.15404017 -0.26680514 0.3069781
v -1.0842021E-21 -0.29120424 0.43015963
v 0.14560226 -0.25219023 0.43015963
v -0.15995911 -0.09235243 0.6312612
v -0.18470488 0 0.6312612
v -0.12053553 -0.20877342 0.5568212
v 0.25219032 -0.14560209 0.4301597
v 0.24107079 0 0.5568212
v 0.20877348 -0.120535396 0.5568212
v 0.18470488 0 0.6312612
v 0.12053553 -0.20877342 0.5568212
v 0.15995911 -0.09235243 0.6312612
v -8.88302E-11 -0.24107078 0.5568213
v -0.09235253 -0.15995908 0.6312612
v 0.09235254 -0.15995908 0.6312612
v -1.4210854E-16 -0.18470487 0.6312611
v 0.09370495 -0.05410056 0.694927
v 0.108201206 0 0.6949269
v -1.3352966E-10 0 0.71944124
v 0.054100648 -0.093704924 0.6949269
v -1.3352966E-10 -0.10820116 0.6949268
v -0.054100648 -0.093704924 0.6949269
v -0.09370495 -0.05410056 0.694927
v -0.108201206 0 0.6949269
v -1.3352966E-10 0 0.71944124
v -0.108201206 0 0.6949269
v -0.09370495 0.05410056 0.694927
v -0.18470488 0 0.6312612
v -0.15995911 0.09235243 0.6312612
v -0.24107079 0 0.5568212
v -0.054100648 0.093704924 0.6949269
v -0.20877348 0.120535396 0.5568212
v -0.09235253 0.15995908 0.6312612
v -1.3352966E-10 0.10820116 0.6949268
v -0.25219032 0.14560209 0.4301597
v -0.29120424 0 0.43015963
v -0.26680526 0.15404004 0.30697814
v -0.3080801 0 0.30697808
v -0.28926474 0 0.17601085
v -0.25051066 0.14463234 0.17601083
v -0.23921989 0 0.087430485
v -0.20717055 0.11960991 0.087430455
v -0.15026946 0 0.029950825
v -0.14463244 0.25051054 0.17601082
v -0.15404017 0.26680514 0.3069781
v -4.5258304E-11 0.2892647 0.17601083
v -0.14560226 0.25219023 0.43015963
v -0.13013719 0.075134665 0.029950792
v -1.0842021E-21 0 -0.0016564941
v -0.119609974 0.20717041 0.087430485
v -0.075134724 0.1301371 0.029950825
v -1.7441133E-10 0.23921987 0.087430455
v 3.3675163E-10 0.15026946 0.029950792
v 0.11960997 0.20717041 0.087430485
v 0.075134724 0.1301371 0.029950825
v 0.13013719 0.075134665 0.029950792
v 0.15026946 0 0.029950825
v 0.23921989 0 0.087430485
v 0.20717055 0.11960991 0.087430455
v 0.14463244 0.25051054 0.17601082
v 0.25051066 0.14463234 0.17601083
v 0.26680526 0.15404004 0.30697814
v 0.28926474 0 0.17601085
v 0.3080801 0 0.30697808
v 0.29120424 0 0.43015963
v 0.15404017 0.26680514 0.3069781
v 0.25219032 0.14560209 0.4301597
v 0.24107079 0 0.5568212
v 0.14560226 0.25219023 0.43015963
v 0.20877348 0.120535396 0.5568212
v 0.18470488 0 0.6312612
v -0 0.30808008 0.30697808
v -1.0842021E-21 0.29120424 0.43015963
v 0.12053553 0.20877342 0.5568212
v 0.15995911 0.09235243 0.6312612
v -0.12053553 0.20877342 0.5568212
v -8.88302E-11 0.24107078 0.5568213
v -1.4210854E-16 0.18470487 0.6312611
v 0.09235254 0.15995908 0.6312612
v 0.054100648 0.093704924 0.6949269
v 0.09370495 0.05410056 0.694927
v 0.108201206 0 0.6949269
vt 0.39331055 0.025817871
vt 0.54248047 0.103759766
vt 0.57666016 0.087890625
vt 0.68359375 0.16333008
vt 0.6064453 0.1772461
vt 0.47875977 0.1161499
vt 0.62890625 0.26220703
vt 0.7363281 0.26220703
vt 0.64697266 0.3864746
vt 0.7739258 0.3864746
vt 0.7573242 0.5053711
vt 0.51416016 0.26220703
vt 0.50683594 0.18518066
vt 0.39331055 0.26220703
vt 0.39453125 0.121520996
vt 0.3935547 0.18823242
vt 0.32421875 0.1194458
vt 0.2524414 0.109375
vt 0.19543457 0.087890625
vt 0.2919922 0.18615723
vt 0.1899414 0.17822266
vt 0.0947876 0.16333008
vt 0.2788086 0.26220703
vt 0.16320801 0.26220703
vt 0.04562378 0.26220703
vt 0.14477539 0.3864746
vt 0.018203735 0.3864746
vt 0.040130615 0.5053711
vt 0.2697754 0.3864746
vt 0.15576172 0.5053711
vt 0.107788086 0.64208984
vt 0.39331055 0.3864746
vt 0.2746582 0.5053711
vt 0.1940918 0.625
vt 0.5214844 0.3864746
vt 0.39331055 0.5053711
vt 0.51660156 0.5053711
vt 0.23901367 0.70166016
vt 0.18469238 0.72314453
vt 0.2919922 0.61621094
vt 0.6357422 0.5053711
vt 0.69384766 0.64208984
vt 0.5966797 0.6254883
vt 0.6166992 0.72314453
vt 0.4975586 0.6166992
vt 0.5498047 0.7001953
vt 0.39331055 0.61376953
vt 0.31225586 0.6879883
vt 0.47436523 0.6875
vt 0.39331055 0.68359375
vt 0.5058594 0.7680664
vt 0.5488281 0.7792969
vt 0.39331055 0.8276367
vt 0.45141602 0.7626953
vt 0.39086914 0.76123047
vt 0.3322754 0.7636719
vt 0.2836914 0.7705078
vt 0.25634766 0.7792969
vt 0.39331055 0.8276367
vt 0.25634766 0.7792969
vt 0.2836914 0.7705078
vt 0.18469238 0.72314453
vt 0.23901367 0.70166016
vt 0.107788086 0.64208984
vt 0.3322754 0.7636719
vt 0.1940918 0.625
vt 0.31225586 0.6879883
vt 0.39086914 0.76123047
vt 0.15576172 0.5053711
vt 0.040130615 0.5053711
vt 0.14477539 0.3864746
vt 0.018203735 0.3864746
vt 0.04562378 0.26220703
vt 0.16320801 0.26220703
vt 0.0947876 0.16333008
vt 0.1899414 0.17822266
vt 0.19543457 0.087890625
vt 0.2788086 0.26220703
vt 0.2697754 0.3864746
vt 0.39331055 0.26220703
vt 0.2746582 0.5053711
vt 0.2524414 0.109375
vt 0.39331055 0.025817871
vt 0.2919922 0.18615723
vt 0.32421875 0.1194458
vt 0.3935547 0.18823242
vt 0.39453125 0.121520996
vt 0.50683594 0.18518066
vt 0.47875977 0.1161499
vt 0.54248047 0.103759766
vt 0.57666016 0.087890625
vt 0.68359375 0.16333008
vt 0.6064453 0.1772461
vt 0.51416016 0.26220703
vt 0.62890625 0.26220703
vt 0.64697266 0.3864746
vt 0.7363281 0.26220703
vt 0.7739258 0.3864746
vt 0.7573242 0.5053711
vt 0.5214844 0.3864746
vt 0.6357422 0.5053711
vt 0.69384766 0.64208984
vt 0.51660156 0.5053711
vt 0.5966797 0.6254883
vt 0.6166992 0.72314453
vt 0.39331055 0.3864746
vt 0.39331055 0.5053711
vt 0.4975586 0.6166992
vt 0.5498047 0.7001953
vt 0.2919922 0.61621094
vt 0.39331055 0.61376953
vt 0.39331055 0.68359375
vt 0.47436523 0.6875
vt 0.45141602 0.7626953
vt 0.5058594 0.7680664
vt 0.5488281 0.7792969
vn -0 0 -1
vn 0.35158598 -0.2029883 -0.9138835
vn 0.40597665 0 -0.9138835
vn 0.7454141 0 -0.6666018
vn 0.64554745 -0.37270692 -0.6666019
vn 0.20298845 -0.351586 -0.9138834
vn 0.8223221 -0.47476777 -0.313659
vn 0.9495357 0 -0.31365895
vn 0.86602116 -0.49999732 -0.003195576
vn 0.9999949 0 -0.003195568
vn 0.9685071 0 0.24898599
vn 0.47476768 -0.822322 -0.3136592
vn 0.37270683 -0.64554733 -0.666602
vn -0 -0.9495356 -0.31365895
vn -0 -0.4059767 -0.9138834
vn -0 -0.74541414 -0.6666017
vn -0.2029884 -0.35158616 -0.9138834
vn -0.35158598 -0.20298828 -0.9138835
vn -0.40597668 0 -0.9138835
vn -0.37270686 -0.64554733 -0.66660196
vn -0.64554745 -0.3727069 -0.6666019
vn -0.74541396 0 -0.6666018
vn -0.4747677 -0.822322 -0.31365916
vn -0.8223221 -0.47476777 -0.313659
vn -0.9495357 0 -0.31365895
vn -0.86602116 -0.49999732 -0.0031955128
vn -0.9999949 0 -0.003195568
vn -0.9685071 0 0.24898599
vn -0.4999976 -0.866021 -0.0031957102
vn -0.8387519 -0.4842533 0.24898605
vn -0.8766974 0 0.4810423
vn -0 -0.9999949 -0.00319571
vn -0.4842538 -0.8387517 0.24898586
vn -0.7592423 -0.43834847 0.48104224
vn 0.49999753 -0.866021 -0.003195761
vn -0 -0.9685071 0.24898581
vn 0.48425364 -0.83875173 0.24898583
vn -0.6338849 -0.36597356 0.6813613
vn -0.7319473 0 0.68136126
vn -0.4383488 -0.7592421 0.48104224
vn 0.8387519 -0.4842532 0.24898612
vn 0.8766974 0 0.4810423
vn 0.7592423 -0.43834856 0.48104224
vn 0.73194724 0 0.6813613
vn 0.43834892 -0.7592421 0.48104218
vn 0.6338849 -0.36597356 0.6813613
vn -0 -0.8766973 0.48104241
vn -0.3659734 -0.6338849 0.6813615
vn 0.36597356 -0.6338848 0.6813615
vn -1.2332207E-07 -0.731947 0.6813616
vn 0.40936857 -0.23634918 0.88122445
vn 0.4726987 0 0.88122416
vn -0 0 1
vn 0.23634855 -0.40936935 0.8812243
vn -0 -0.47269884 0.88122404
vn -0.23634854 -0.40936926 0.8812243
vn -0.40936857 -0.23634918 0.88122445
vn -0.4726987 0 0.88122416
vn -0 0 1
vn -0.4726987 0 0.88122416
vn -0.4093685 0.23634917 0.88122445
vn -0.7319473 0 0.68136126
vn -0.63388485 0.3659736 0.6813614
vn -0.8766974 0 0.4810423
vn -0.23634854 0.40936926 0.8812243
vn -0.7592423 0.43834847 0.4810423
vn -0.3659734 0.6338849 0.6813615
vn -0 0.47269884 0.88122404
vn -0.83875185 0.4842533 0.24898604
vn -0.9685071 0 0.24898599
vn -0.86602116 0.49999732 -0.0031955163
vn -0.9999949 0 -0.003195568
vn -0.9495357 0 -0.31365895
vn -0.8223221 0.47476777 -0.313659
vn -0.74541396 0 -0.6666018
vn -0.64554745 0.3727069 -0.66660184
vn -0.40597668 0 -0.9138835
vn -0.47476777 0.822322 -0.3136592
vn -0.4999976 0.866021 -0.003195705
vn -0 0.9495356 -0.31365895
vn -0.4842538 0.8387517 0.24898586
vn -0.35158598 0.20298828 -0.9138835
vn -0 0 -1
vn -0.37270686 0.64554733 -0.66660196
vn -0.2029884 0.3515862 -0.9138834
vn -0 0.7454141 -0.6666018
vn -0 0.4059767 -0.9138834
vn 0.37270686 0.64554733 -0.666602
vn 0.20298845 0.35158607 -0.9138834
vn 0.35158595 0.2029883 -0.9138835
vn 0.40597665 0 -0.9138835
vn 0.7454141 0 -0.6666018
vn 0.64554745 0.37270692 -0.6666019
vn 0.47476777 0.822322 -0.3136592
vn 0.8223221 0.47476777 -0.313659
vn 0.86602116 0.49999732 -0.0031955708
vn 0.9495357 0 -0.31365895
vn 0.9999949 0 -0.003195568
vn 0.9685071 0 0.24898599
vn 0.49999753 0.866021 -0.003195761
vn 0.8387519 0.4842532 0.24898612
vn 0.8766974 0 0.4810423
vn 0.48425364 0.83875173 0.24898583
vn 0.7592423 0.43834856 0.48104224
vn 0.73194724 0 0.6813613
vn -0 0.9999949 -0.0031957126
vn -0 0.9685071 0.24898581
vn 0.43834892 0.7592421 0.48104218
vn 0.6338849 0.36597356 0.68136126
vn -0.43834886 0.7592421 0.48104227
vn -0 0.8766973 0.48104241
vn -1.2332207E-07 0.731947 0.6813616
vn 0.36597356 0.6338848 0.6813615
vn 0.23634854 0.40936923 0.8812243
vn 0.40936854 0.23634917 0.88122445
vn 0.4726987 0 0.88122416
g Egg_0
f 3/3/3 2/2/2 1/1/1
f 3/3/3 4/4/4 2/2/2
f 5/5/5 2/2/2 4/4/4
f 2/2/2 6/6/6 1/1/1
f 2/2/2 5/5/5 6/6/6
f 5/5/5 4/4/4 7/7/7
f 8/8/8 7/7/7 4/4/4
f 7/7/7 8/8/8 9/9/9
f 9/9/9 8/8/8 10/10/10
f 10/10/10 11/11/11 9/9/9
f 7/7/7 12/12/12 5/5/5
f 7/7/7 9/9/9 12/12/12
f 13/13/13 6/6/6 5/5/5
f 13/13/13 5/5/5 12/12/12
f 12/12/12 14/14/14 13/13/13
f 6/6/6 13/13/13 15/15/15
f 6/6/6 15/15/15 1/1/1
f 16/16/16 15/15/15 13/13/13
f 16/16/16 13/13/13 14/14/14
f 15/15/15 17/17/17 1/1/1
f 15/15/15 16/16/16 17/17/17
f 17/17/17 18/18/18 1/1/1
f 18/18/18 19/19/19 1/1/1
f 20/20/20 17/17/17 16/16/16
f 17/17/17 20/20/20 18/18/18
f 16/16/16 14/14/14 20/20/20
f 18/18/18 21/21/21 19/19/19
f 21/21/21 18/18/18 20/20/20
f 22/22/22 19/19/19 21/21/21
f 20/20/20 23/23/23 21/21/21
f 23/23/23 20/20/20 14/14/14
f 21/21/21 24/24/24 22/22/22
f 24/24/24 21/21/21 23/23/23
f 25/25/25 22/22/22 24/24/24
f 24/24/24 26/26/26 25/25/25
f 24/24/24 23/23/23 26/26/26
f 25/25/25 26/26/26 27/27/27
f 27/27/27 26/26/26 28/28/28
f 29/29/29 26/26/26 23/23/23
f 23/23/23 14/14/14 29/29/29
f 26/26/26 30/30/30 28/28/28
f 26/26/26 29/29/29 30/30/30
f 28/28/28 30/30/30 31/31/31
f 32/32/32 29/29/29 14/14/14
f 33/33/33 30/30/30 29/29/29
f 29/29/29 32/32/32 33/33/33
f 34/34/34 31/31/31 30/30/30
f 30/30/30 33/33/33 34/34/34
f 32/32/32 14/14/14 35/35/35
f 12/12/12 35/35/35 14/14/14
f 35/35/35 12/12/12 9/9/9
f 36/36/36 33/33/33 32/32/32
f 32/32/32 35/35/35 36/36/36
f 35/35/35 9/9/9 37/37/37
f 37/37/37 36/36/36 35/35/35
f 34/34/34 38/38/38 31/31/31
f 39/39/39 31/31/31 38/38/38
f 40/40/40 34/34/34 33/33/33
f 33/33/33 36/36/36 40/40/40
f 41/41/41 37/37/37 9/9/9
f 9/9/9 11/11/11 41/41/41
f 11/11/11 42/42/42 41/41/41
f 43/43/43 41/41/41 42/42/42
f 41/41/41 43/43/43 37/37/37
f 42/42/42 44/44/44 43/43/43
f 37/37/37 45/45/45 36/36/36
f 45/45/45 37/37/37 43/43/43
f 46/46/46 43/43/43 44/44/44
f 43/43/43 46/46/46 45/45/45
f 47/47/47 36/36/36 45/45/45
f 47/47/47 40/40/40 36/36/36
f 40/40/40 48/48/48 34/34/34
f 38/38/38 34/34/34 48/48/48
f 45/45/45 49/49/49 47/47/47
f 49/49/49 45/45/45 46/46/46
f 47/47/47 50/50/50 40/40/40
f 48/48/48 40/40/40 50/50/50
f 50/50/50 47/47/47 49/49/49
f 46/46/46 44/44/44 51/51/51
f 52/52/52 51/51/51 44/44/44
f 51/51/51 52/52/52 53/53/53
f 51/51/51 54/54/54 46/46/46
f 49/49/49 46/46/46 54/54/54
f 54/54/54 51/51/51 53/53/53
f 50/50/50 49/49/49 55/55/55
f 54/54/54 55/55/55 49/49/49
f 50/50/50 55/55/55 48/48/48
f 55/55/55 54/54/54 53/53/53
f 56/56/56 48/48/48 55/55/55
f 48/48/48 56/56/56 38/38/38
f 56/56/56 55/55/55 53/53/53
f 57/57/57 38/38/38 56/56/56
f 57/57/57 56/56/56 53/53/53
f 38/38/38 57/57/57 39/39/39
f 58/58/58 57/57/57 53/53/53
f 58/58/58 39/39/39 57/57/57
f 61/61/61 60/60/60 59/59/59
f 60/60/60 61/61/61 62/62/62
f 63/63/63 62/62/62 61/61/61
f 62/62/62 63/63/63 64/64/64
f 65/65/65 61/61/61 59/59/59
f 61/61/61 65/65/65 63/63/63
f 66/66/66 64/64/64 63/63/63
f 67/67/67 63/63/63 65/65/65
f 63/63/63 67/67/67 66/66/66
f 68/68/68 65/65/65 59/59/59
f 65/65/65 68/68/68 67/67/67
f 66/66/66 69/69/69 64/64/64
f 70/70/70 64/64/64 69/69/69
f 69/69/69 71/71/71 70/70/70
f 71/71/71 72/72/72 70/70/70
f 71/71/71 73/73/73 72/72/72
f 74/74/74 73/73/73 71/71/71
f 73/73/73 74/74/74 75/75/75
f 76/76/76 75/75/75 74/74/74
f 75/75/75 76/76/76 77/77/77
f 74/74/74 71/71/71 78/78/78
f 74/74/74 78/78/78 76/76/76
f 71/71/71 69/69/69 79/79/79
f 79/79/79 78/78/78 71/71/71
f 78/78/78 79/79/79 80/80/80
f 69/69/69 66/66/66 81/81/81
f 81/81/81 79/79/79 69/69/69
f 82/82/82 77/77/77 76/76/76
f 77/77/77 82/82/82 83/83/83
f 84/84/84 76/76/76 78/78/78
f 76/76/76 84/84/84 82/82/82
f 78/78/78 80/80/80 84/84/84
f 85/85/85 82/82/82 84/84/84
f 82/82/82 85/85/85 83/83/83
f 84/84/84 86/86/86 85/85/85
f 86/86/86 84/84/84 80/80/80
f 87/87/87 85/85/85 86/86/86
f 85/85/85 87/87/87 83/83/83
f 86/86/86 88/88/88 87/87/87
f 86/86/86 80/80/80 88/88/88
f 87/87/87 89/89/89 83/83/83
f 89/89/89 87/87/87 88/88/88
f 89/89/89 90/90/90 83/83/83
f 90/90/90 91/91/91 83/83/83
f 91/91/91 90/90/90 92/92/92
f 90/90/90 89/89/89 93/93/93
f 88/88/88 93/93/93 89/89/89
f 93/93/93 92/92/92 90/90/90
f 88/88/88 94/94/94 93/93/93
f 94/94/94 88/88/88 80/80/80
f 93/93/93 95/95/95 92/92/92
f 95/95/95 93/93/93 94/94/94
f 95/95/95 94/94/94 96/96/96
f 97/97/97 92/92/92 95/95/95
f 95/95/95 96/96/96 97/97/97
f 97/97/97 96/96/96 98/98/98
f 98/98/98 96/96/96 99/99/99
f 94/94/94 80/80/80 100/100/100
f 100/100/100 96/96/96 94/94/94
f 99/99/99 96/96/96 101/101/101
f 99/99/99 101/101/101 102/102/102
f 101/101/101 96/96/96 103/103/103
f 100/100/100 103/103/103 96/96/96
f 104/104/104 102/102/102 101/101/101
f 101/101/101 103/103/103 104/104/104
f 102/102/102 104/104/104 105/105/105
f 106/106/106 100/100/100 80/80/80
f 106/106/106 80/80/80 79/79/79
f 79/79/79 81/81/81 106/106/106
f 106/106/106 107/107/107 100/100/100
f 103/103/103 100/100/100 107/107/107
f 107/107/107 106/106/106 81/81/81
f 108/108/108 104/104/104 103/103/103
f 103/103/103 107/107/107 108/108/108
f 109/109/109 105/105/105 104/104/104
f 104/104/104 108/108/108 109/109/109
f 81/81/81 110/110/110 107/107/107
f 110/110/110 81/81/81 66/66/66
f 110/110/110 66/66/66 67/67/67
f 111/111/111 108/108/108 107/107/107
f 111/111/111 107/107/107 110/110/110
f 67/67/67 112/112/112 110/110/110
f 111/111/111 110/110/110 112/112/112
f 112/112/112 67/67/67 68/68/68
f 108/108/108 111/111/111 113/113/113
f 112/112/112 113/113/113 111/111/111
f 112/112/112 68/68/68 113/113/113
f 113/113/113 109/109/109 108/108/108
f 114/114/114 113/113/113 68/68/68
f 113/113/113 114/114/114 109/109/109
f 114/114/114 68/68/68 59/59/59
f 109/109/109 115/115/115 105/105/105
f 115/115/115 109/109/109 114/114/114
f 115/115/115 114/114/114 59/59/59
f 116/116/116 105/105/105 115/115/115
f 116/116/116 115/115/115 59/59/59
